<svg xmlns="http://www.w3.org/2000/svg">

  <!-- Logo icon -->
  <symbol id="d82-logo" viewBox="0 0 241.7 281.2">
    <g>
    	<g>
    		<path fill="#ffffff" d="M54.8,41.5c0-7.1-2.7-9.8-12-9.8l-0.8-3.5c14.8-1.4,26.6-7.4,26.6-7.4v102.4c0,7.1,2.7,9.6,12,9.6l1,3.5
    			c-13.5,1.1-25.7,7.4-25.7,7.4l-1.1-10c-6.6,1.9-12,10-24.4,10c-19.1,0-30.2-14.6-30.2-35.8c0-21.4,14.1-41.6,44.6-41.6
    			c6.1,0,10,0.8,10,0.8V41.5z M54.8,129.3V84.7c0-6.7-3.5-12.4-14-12.4c-14,0-26.3,11.2-26.3,31.3c0,15.4,6.6,31.1,23.6,31.1
    			C44.5,134.8,50.6,130.1,54.8,129.3z"/>
    		<path fill="#ffffff" d="M137.1,87.4c0,0,21.4,11.2,21.4,28.1c0,20.2-19.7,28.6-33.9,28.6c-16.9,0-31.9-8.8-31.9-24.6
    			c0-17.2,15.4-22.3,22.2-29.9C101.3,80.3,94.9,74.6,94.9,62c0-15.6,14-26.2,32.6-26.2c16.2,0,30.2,9.3,30.2,23.3
    			C157.7,76.6,141.8,82.6,137.1,87.4z M124.4,138.1c10.3,0,19.1-7.2,19.1-17c0-16.1-24.4-28.9-24.4-28.9
    			c-6.1,8.2-13.2,14.4-13.2,27.3C106,130.6,114.3,138.1,124.4,138.1z M109,58.5c0,11.1,10.8,18.3,23.8,26.6
    			c4.7-7.2,11.6-11.1,11.6-25.4c0-9.2-7.2-17.7-17.2-17.7C117.1,42.1,109,48.7,109,58.5z"/>
    		<path fill="#ffffff" d="M234.6,83.5c0,16.5-16.1,28.7-44.3,46.9l26.5-1.1c12.2-0.5,17.2-4.5,21.4-14.1l3.2,0.8l-7.4,25.2h-58.8
    			l-1.4-3.9l31-27.9c8.8-7.9,14.4-14.1,14.4-24.1c0-7.2-5.6-14.8-15.6-14.8c-10.3,0-14.8,6.4-14.8,14.1c0,1.8,0.3,3.7,1,5.6
    			c-1.8,0.6-3.5,1-5,1c-5.5,0-9.2-3.4-9.2-9c0-9.2,11.4-20.7,31.8-20.7C223.3,61.5,234.6,71,234.6,83.5z"/>
    	</g>
    	<g>
    		<path fill="#000000" d="M76.4,167.6v-4.8c0,0,11.2,0.5,19.8,0.5c9.1,0,19.8-0.5,19.8-0.5v4.8l-3.3,0.8c-6.8,1.6-11.7,6.6-11.7,16.2v55.1
    			c0,27.2-12.9,41.2-42.6,41.2c-28.7,0-42.7-13.7-42.7-41.2v-60.5c0-7.6-2.8-9.7-9.6-10.7l-5.4-0.8v-4.8c0,0,10.4,0.5,23.3,0.5
    			c13.7,0,23.4-0.5,23.4-0.5v4.8l-4.1,0.8c-6.8,1.3-11.7,6.6-11.7,16.2v55.6c0,20.1,6.8,32.8,30.5,32.8c23.1,0,30.2-14.7,30.2-32.8
    			v-61c0-7.6-2.8-9.9-9.6-10.7L76.4,167.6z"/>
    		<path fill="#000000" d="M205,179.5c1.8-2.6,2.8-4.9,2.8-6.9c0-2.3-1.5-3.6-5.1-4.1l-5.4-0.8v-4.8c0,0,11.9,0.5,21.3,0.5c10.6,0,19.3-0.5,19.3-0.5
    			v4.8l-5.3,0.8c-7.8,1.2-13.7,3.8-19.5,12.5L190,216.5l32.7,46.3c5.1,7.3,10.4,9.4,14.5,10.1l3.8,0.7v4.8c0,0-10.7-0.5-20.3-0.5
    			c-9.9,0-22.3,0.5-22.3,0.5v-4.8l4.3-0.8c2.6-0.5,4.5-1.6,4.5-3.6c0-1.3-0.3-2.6-1.6-4.5l-25.4-36.1l-22.8,33.3
    			c-1.6,2.3-2.5,4.6-2.5,6.4c0,2.5,2.3,4.1,5.1,4.5l6.3,0.8v4.8c0,0-9.4-0.5-19.6-0.5c-11.9,0-20.6,0.5-20.6,0.5v-4.8l4.3-0.8
    			c5.1-1,14-4.5,21.8-15.8l23.6-34.8l-33.2-47c-3.1-4.5-5.8-5.8-11.4-6.6l-5.4-0.8v-4.8c0,0,10.7,0.5,22.9,0.5
    			c14.2,0,22.9-0.5,22.9-0.5v4.8l-3.5,0.8c-4.3,1-7.1,2.5-7.1,4.9c0,1.5,0.3,2.6,2,4.9l22.4,31.8L205,179.5z"/>
    	</g>
    </g>
  </symbol>

  <!-- Logo white icon -->
  <symbol id="d82-logo-white" viewBox="0 0 241.7 281.2">
    <g>
    	<g>
    		<path class="test" d="M54.8,41.5c0-7.1-2.7-9.8-12-9.8l-0.8-3.5c14.8-1.4,26.6-7.4,26.6-7.4v102.4c0,7.1,2.7,9.6,12,9.6l1,3.5
    			c-13.5,1.1-25.7,7.4-25.7,7.4l-1.1-10c-6.6,1.9-12,10-24.4,10c-19.1,0-30.2-14.6-30.2-35.8c0-21.4,14.1-41.6,44.6-41.6
    			c6.1,0,10,0.8,10,0.8V41.5z M54.8,129.3V84.7c0-6.7-3.5-12.4-14-12.4c-14,0-26.3,11.2-26.3,31.3c0,15.4,6.6,31.1,23.6,31.1
    			C44.5,134.8,50.6,130.1,54.8,129.3z"/>
    		<path d="M137.1,87.4c0,0,21.4,11.2,21.4,28.1c0,20.2-19.7,28.6-33.9,28.6c-16.9,0-31.9-8.8-31.9-24.6
    			c0-17.2,15.4-22.3,22.2-29.9C101.3,80.3,94.9,74.6,94.9,62c0-15.6,14-26.2,32.6-26.2c16.2,0,30.2,9.3,30.2,23.3
    			C157.7,76.6,141.8,82.6,137.1,87.4z M124.4,138.1c10.3,0,19.1-7.2,19.1-17c0-16.1-24.4-28.9-24.4-28.9
    			c-6.1,8.2-13.2,14.4-13.2,27.3C106,130.6,114.3,138.1,124.4,138.1z M109,58.5c0,11.1,10.8,18.3,23.8,26.6
    			c4.7-7.2,11.6-11.1,11.6-25.4c0-9.2-7.2-17.7-17.2-17.7C117.1,42.1,109,48.7,109,58.5z"/>
    		<path d="M234.6,83.5c0,16.5-16.1,28.7-44.3,46.9l26.5-1.1c12.2-0.5,17.2-4.5,21.4-14.1l3.2,0.8l-7.4,25.2h-58.8
    			l-1.4-3.9l31-27.9c8.8-7.9,14.4-14.1,14.4-24.1c0-7.2-5.6-14.8-15.6-14.8c-10.3,0-14.8,6.4-14.8,14.1c0,1.8,0.3,3.7,1,5.6
    			c-1.8,0.6-3.5,1-5,1c-5.5,0-9.2-3.4-9.2-9c0-9.2,11.4-20.7,31.8-20.7C223.3,61.5,234.6,71,234.6,83.5z"/>
    	</g>
    	<g>
    		<path d="M76.4,167.6v-4.8c0,0,11.2,0.5,19.8,0.5c9.1,0,19.8-0.5,19.8-0.5v4.8l-3.3,0.8c-6.8,1.6-11.7,6.6-11.7,16.2v55.1
    			c0,27.2-12.9,41.2-42.6,41.2c-28.7,0-42.7-13.7-42.7-41.2v-60.5c0-7.6-2.8-9.7-9.6-10.7l-5.4-0.8v-4.8c0,0,10.4,0.5,23.3,0.5
    			c13.7,0,23.4-0.5,23.4-0.5v4.8l-4.1,0.8c-6.8,1.3-11.7,6.6-11.7,16.2v55.6c0,20.1,6.8,32.8,30.5,32.8c23.1,0,30.2-14.7,30.2-32.8
    			v-61c0-7.6-2.8-9.9-9.6-10.7L76.4,167.6z"/>
    		<path d="M205,179.5c1.8-2.6,2.8-4.9,2.8-6.9c0-2.3-1.5-3.6-5.1-4.1l-5.4-0.8v-4.8c0,0,11.9,0.5,21.3,0.5c10.6,0,19.3-0.5,19.3-0.5
    			v4.8l-5.3,0.8c-7.8,1.2-13.7,3.8-19.5,12.5L190,216.5l32.7,46.3c5.1,7.3,10.4,9.4,14.5,10.1l3.8,0.7v4.8c0,0-10.7-0.5-20.3-0.5
    			c-9.9,0-22.3,0.5-22.3,0.5v-4.8l4.3-0.8c2.6-0.5,4.5-1.6,4.5-3.6c0-1.3-0.3-2.6-1.6-4.5l-25.4-36.1l-22.8,33.3
    			c-1.6,2.3-2.5,4.6-2.5,6.4c0,2.5,2.3,4.1,5.1,4.5l6.3,0.8v4.8c0,0-9.4-0.5-19.6-0.5c-11.9,0-20.6,0.5-20.6,0.5v-4.8l4.3-0.8
    			c5.1-1,14-4.5,21.8-15.8l23.6-34.8l-33.2-47c-3.1-4.5-5.8-5.8-11.4-6.6l-5.4-0.8v-4.8c0,0,10.7,0.5,22.9,0.5
    			c14.2,0,22.9-0.5,22.9-0.5v4.8l-3.5,0.8c-4.3,1-7.1,2.5-7.1,4.9c0,1.5,0.3,2.6,2,4.9l22.4,31.8L205,179.5z"/>
    	</g>
    </g>
  </symbol>

  <!-- Heart icon-->
  <symbol id="heart" viewBox="0 0 32 32">
    <path clip-rule="evenodd" d="M29.193,5.265c-3.629-3.596-9.432-3.671-13.191-0.288   C12.242,1.594,6.441,1.669,2.81,5.265c-3.741,3.704-3.741,9.709,0,13.415c1.069,1.059,11.053,10.941,11.053,10.941   c1.183,1.172,3.096,1.172,4.278,0c0,0,10.932-10.822,11.053-10.941C32.936,14.974,32.936,8.969,29.193,5.265z M27.768,17.268   L16.715,28.209c-0.393,0.391-1.034,0.391-1.425,0L4.237,17.268c-2.95-2.92-2.95-7.671,0-10.591   c2.844-2.815,7.416-2.914,10.409-0.222l1.356,1.22l1.355-1.22c2.994-2.692,7.566-2.594,10.41,0.222   C30.717,9.596,30.717,14.347,27.768,17.268z" fill="#333333" fill-rule="evenodd"/><path clip-rule="evenodd" d="M9.253,7.501c-0.002,0-0.002,0.001-0.004,0.001   c-2.345,0.002-4.246,1.903-4.246,4.249l0,0c0,0.276,0.224,0.5,0.5,0.5s0.5-0.224,0.5-0.5V11.75c0-1.794,1.455-3.249,3.249-3.249   h0.001c0.276,0,0.5-0.224,0.5-0.5S9.53,7.501,9.253,7.501z" fill="#333333" fill-rule="evenodd"/>
  </symbol>

  <!-- Mail icon-->
  <symbol id="mail" viewBox="0 0 32 32">
    <path d="M28,5H4C1.791,5,0,6.792,0,9v13c0,2.209,1.791,4,4,4h24c2.209,0,4-1.791,4-4V9  C32,6.792,30.209,5,28,5z M2,10.25l6.999,5.25L2,20.75V10.25z M30,22c0,1.104-0.898,2-2,2H4c-1.103,0-2-0.896-2-2l7.832-5.875  l4.368,3.277c0.533,0.398,1.166,0.6,1.8,0.6c0.633,0,1.266-0.201,1.799-0.6l4.369-3.277L30,22L30,22z M30,20.75l-7-5.25l7-5.25  V20.75z M17.199,18.602c-0.349,0.262-0.763,0.4-1.199,0.4c-0.436,0-0.851-0.139-1.2-0.4L10.665,15.5l-0.833-0.625L2,9.001V9  c0-1.103,0.897-2,2-2h24c1.102,0,2,0.897,2,2L17.199,18.602z" fill="#333333" />
  </symbol>

</svg>
