<svg xmlns="http://www.w3.org/2000/svg">

  <!-- Heart icon-->
  <symbol id="heart" viewBox="0 0 32 32">
    <path clip-rule="evenodd" d="M29.193,5.265c-3.629-3.596-9.432-3.671-13.191-0.288   C12.242,1.594,6.441,1.669,2.81,5.265c-3.741,3.704-3.741,9.709,0,13.415c1.069,1.059,11.053,10.941,11.053,10.941   c1.183,1.172,3.096,1.172,4.278,0c0,0,10.932-10.822,11.053-10.941C32.936,14.974,32.936,8.969,29.193,5.265z M27.768,17.268   L16.715,28.209c-0.393,0.391-1.034,0.391-1.425,0L4.237,17.268c-2.95-2.92-2.95-7.671,0-10.591   c2.844-2.815,7.416-2.914,10.409-0.222l1.356,1.22l1.355-1.22c2.994-2.692,7.566-2.594,10.41,0.222   C30.717,9.596,30.717,14.347,27.768,17.268z" fill="#333333" fill-rule="evenodd"/><path clip-rule="evenodd" d="M9.253,7.501c-0.002,0-0.002,0.001-0.004,0.001   c-2.345,0.002-4.246,1.903-4.246,4.249l0,0c0,0.276,0.224,0.5,0.5,0.5s0.5-0.224,0.5-0.5V11.75c0-1.794,1.455-3.249,3.249-3.249   h0.001c0.276,0,0.5-0.224,0.5-0.5S9.53,7.501,9.253,7.501z" fill="#333333" fill-rule="evenodd"/>
  </symbol>

  <!-- Mail icon-->
  <symbol id="mail" viewBox="0 0 32 32">
    <path d="M28,5H4C1.791,5,0,6.792,0,9v13c0,2.209,1.791,4,4,4h24c2.209,0,4-1.791,4-4V9  C32,6.792,30.209,5,28,5z M2,10.25l6.999,5.25L2,20.75V10.25z M30,22c0,1.104-0.898,2-2,2H4c-1.103,0-2-0.896-2-2l7.832-5.875  l4.368,3.277c0.533,0.398,1.166,0.6,1.8,0.6c0.633,0,1.266-0.201,1.799-0.6l4.369-3.277L30,22L30,22z M30,20.75l-7-5.25l7-5.25  V20.75z M17.199,18.602c-0.349,0.262-0.763,0.4-1.199,0.4c-0.436,0-0.851-0.139-1.2-0.4L10.665,15.5l-0.833-0.625L2,9.001V9  c0-1.103,0.897-2,2-2h24c1.102,0,2,0.897,2,2L17.199,18.602z" fill="#333333" />
  </symbol>

</svg>
